<svg xmlns="http://www.w3.org/2000/svg" viewBox="0 0 49.52 66.22"><defs><style>.cls-1,.cls-2{stroke:#fff;stroke-linecap:round;stroke-linejoin:round;stroke-width:0.5px;}.cls-2{fill:none;}.cls-3{fill:#0532ff;}</style></defs><g id="Layer_2" data-name="Layer 2"><g id="Layer_1-2" data-name="Layer 1"><path class="cls-1" d="M5.1,29h0V20.35a2.44,2.44,0,0,1,4.87,0V17.19a2.43,2.43,0,0,1,2.44-2.43h0a2.43,2.43,0,0,1,2.43,2.43v3.16a2.44,2.44,0,0,1,4.87,0V32.1l.14-3.18V24.18a2.43,2.43,0,0,1,2.43-2.44h0a2.44,2.44,0,0,1,2.44,2.44V28.9h0V46.5l-2.68,2.2L19.23,66l-17,0,5.48-17.2L.81,40a2.55,2.55,0,0,1-.53-1.2h0a2.73,2.73,0,0,1,0-.41V29.71a2.44,2.44,0,0,1,2.44-2.44h0a2.43,2.43,0,0,1,2.43,2.44V34"/><line class="cls-2" x1="9.99" y1="20.35" x2="9.99" y2="29.82"/><line class="cls-2" x1="14.85" y1="20.35" x2="14.85" y2="30.38"/><path class="cls-2" d="M4.75,35a9.9,9.9,0,0,1,5.88,5.35"/><path class="cls-1" d="M44.42,29c0-2.88,0-5.75,0-8.63a2.44,2.44,0,0,0-4.87,0V17.19a2.44,2.44,0,0,0-4.87,0v3.16a2.44,2.44,0,0,0-4.87,0V32.1l-.14-3.18V24.18a2.44,2.44,0,1,0-4.87,0V28.9h0V46.5l2.68,2.2L30.29,66l17,0-5.48-17.2L48.71,40a2.55,2.55,0,0,0,.53-1.2,2.73,2.73,0,0,0,0-.41V29.71a2.44,2.44,0,1,0-4.87,0V34"/><line class="cls-2" x1="39.53" y1="20.35" x2="39.53" y2="29.82"/><line class="cls-2" x1="34.67" y1="20.35" x2="34.67" y2="30.38"/><path class="cls-2" d="M44.77,35a9.9,9.9,0,0,0-5.88,5.35"/><path class="cls-3" d="M31.89,8l-.5.5-6.63,6.63L18.13,8.5l-.5-.5a4.69,4.69,0,0,1,6.63-6.63l.5.5.5-.5A4.69,4.69,0,0,1,31.89,8Z"/></g></g></svg>